<svg width="359" height="217" viewBox="0 0 359 217" fill="none" xmlns="http://www.w3.org/2000/svg">
<path d="M0 0H359V217H0V0Z" fill="#1D7AD1"/>
<path fill-rule="evenodd" clip-rule="evenodd" d="M243 129.451C242.996 130.873 242.433 132.234 241.433 133.239C240.434 134.244 239.08 134.811 237.667 134.815H181.667V145.542H189.667C190.022 145.52 190.379 145.575 190.712 145.702C191.045 145.829 191.348 146.026 191.6 146.279C191.852 146.533 192.048 146.837 192.174 147.172C192.3 147.507 192.355 147.866 192.333 148.223V153.587H216.333C217.041 153.587 217.719 153.869 218.219 154.372C218.719 154.875 219 155.557 219 156.269C219 156.98 218.719 157.662 218.219 158.165C217.719 158.668 217.041 158.95 216.333 158.95H192.333V164.314C192.355 164.672 192.3 165.03 192.174 165.365C192.048 165.7 191.852 166.004 191.6 166.258C191.348 166.511 191.045 166.708 190.712 166.835C190.379 166.962 190.022 167.017 189.667 166.995H168.333C167.978 167.017 167.621 166.962 167.288 166.835C166.955 166.708 166.652 166.511 166.4 166.258C166.148 166.004 165.953 165.7 165.826 165.365C165.7 165.03 165.645 164.672 165.667 164.314V158.95H141.667C140.959 158.95 140.281 158.668 139.781 158.165C139.281 157.662 139 156.98 139 156.269C139 155.557 139.281 154.875 139.781 154.372C140.281 153.869 140.959 153.587 141.667 153.587H165.667V148.223C165.645 147.866 165.7 147.507 165.826 147.172C165.953 146.837 166.148 146.533 166.4 146.279C166.652 146.026 166.955 145.829 167.288 145.702C167.621 145.575 167.978 145.52 168.333 145.542H176.333V134.815H120.333C118.92 134.811 117.566 134.244 116.567 133.239C115.567 132.234 115.004 130.873 115 129.451V107.998C115.006 107.053 115.263 106.127 115.744 105.316C115.263 104.505 115.006 103.579 115 102.634V81.1806C115.006 80.2359 115.263 79.31 115.744 78.4989C115.263 77.6877 115.006 76.7618 115 75.8171V54.3634C115.004 52.942 115.567 51.5799 116.566 50.5748C117.565 49.5698 118.92 49.0035 120.333 49H237.667C239.08 49.0035 240.435 49.5698 241.434 50.5748C242.433 51.5799 242.996 52.942 243 54.3634V75.8171C242.994 76.7618 242.737 77.6877 242.256 78.4989C242.737 79.31 242.994 80.2359 243 81.1806V102.634C242.994 103.579 242.737 104.505 242.256 105.316C242.737 106.127 242.994 107.053 243 107.998V129.451ZM171 150.905V161.632H187V150.905H171ZM237.667 54.3634H120.333V75.8171H237.667V54.3634ZM237.667 81.1806H120.333V102.634H237.667V81.1806ZM237.667 107.998H120.333V129.451H237.667V107.998ZM131 116.043H136.333C137.041 116.043 137.719 116.325 138.219 116.828C138.719 117.331 139 118.013 139 118.725C139 119.436 138.719 120.118 138.219 120.621C137.719 121.124 137.041 121.406 136.333 121.406H131C130.293 121.406 129.614 121.124 129.114 120.621C128.614 120.118 128.333 119.436 128.333 118.725C128.333 118.013 128.614 117.331 129.114 116.828C129.614 116.325 130.293 116.043 131 116.043ZM149.667 116.043H155C155.707 116.043 156.386 116.325 156.886 116.828C157.386 117.331 157.667 118.013 157.667 118.725C157.667 119.436 157.386 120.118 156.886 120.621C156.386 121.124 155.707 121.406 155 121.406H149.667C148.959 121.406 148.281 121.124 147.781 120.621C147.281 120.118 147 119.436 147 118.725C147 118.013 147.281 117.331 147.781 116.828C148.281 116.325 148.959 116.043 149.667 116.043ZM168.333 116.043H173.667C174.374 116.043 175.052 116.325 175.552 116.828C176.052 117.331 176.333 118.013 176.333 118.725C176.333 119.436 176.052 120.118 175.552 120.621C175.052 121.124 174.374 121.406 173.667 121.406H168.333C167.626 121.406 166.948 121.124 166.448 120.621C165.948 120.118 165.667 119.436 165.667 118.725C165.667 118.013 165.948 117.331 166.448 116.828C166.948 116.325 167.626 116.043 168.333 116.043ZM131 89.2257H136.333C137.041 89.2257 137.719 89.5083 138.219 90.0112C138.719 90.5141 139 91.1962 139 91.9074C139 92.6187 138.719 93.3008 138.219 93.8037C137.719 94.3066 137.041 94.5891 136.333 94.5891H131C130.293 94.5891 129.614 94.3066 129.114 93.8037C128.614 93.3008 128.333 92.6187 128.333 91.9074C128.333 91.1962 128.614 90.5141 129.114 90.0112C129.614 89.5083 130.293 89.2257 131 89.2257ZM149.667 89.2257H155C155.707 89.2257 156.386 89.5083 156.886 90.0112C157.386 90.5141 157.667 91.1962 157.667 91.9074C157.667 92.6187 157.386 93.3008 156.886 93.8037C156.386 94.3066 155.707 94.5891 155 94.5891H149.667C148.959 94.5891 148.281 94.3066 147.781 93.8037C147.281 93.3008 147 92.6187 147 91.9074C147 91.1962 147.281 90.5141 147.781 90.0112C148.281 89.5083 148.959 89.2257 149.667 89.2257ZM168.333 89.2257H173.667C174.374 89.2257 175.052 89.5083 175.552 90.0112C176.052 90.5141 176.333 91.1962 176.333 91.9074C176.333 92.6187 176.052 93.3008 175.552 93.8037C175.052 94.3066 174.374 94.5891 173.667 94.5891H168.333C167.626 94.5891 166.948 94.3066 166.448 93.8037C165.948 93.3008 165.667 92.6187 165.667 91.9074C165.667 91.1962 165.948 90.5141 166.448 90.0112C166.948 89.5083 167.626 89.2257 168.333 89.2257ZM131 62.4086H136.333C136.689 62.3866 137.046 62.441 137.379 62.568C137.713 62.695 138.015 62.8918 138.267 63.1453C138.52 63.3988 138.715 63.7033 138.841 64.0386C138.968 64.3739 139.022 64.7324 139 65.0903C139.021 65.4481 138.967 65.8063 138.841 66.1414C138.714 66.4765 138.518 66.7809 138.266 67.0343C138.014 67.2878 137.712 67.4846 137.379 67.6117C137.045 67.7389 136.689 67.7935 136.333 67.772H131C130.644 67.7935 130.288 67.7389 129.955 67.6117C129.622 67.4846 129.319 67.2878 129.067 67.0343C128.815 66.7809 128.619 66.4765 128.493 66.1414C128.366 65.8063 128.312 65.4481 128.333 65.0903C128.312 64.7324 128.366 64.3739 128.492 64.0386C128.618 63.7033 128.814 63.3988 129.066 63.1453C129.318 62.8918 129.621 62.695 129.954 62.568C130.288 62.441 130.644 62.3866 131 62.4086ZM149.667 62.4086H155C155.356 62.3866 155.712 62.441 156.046 62.568C156.379 62.695 156.682 62.8918 156.934 63.1453C157.186 63.3988 157.382 63.7033 157.508 64.0386C157.634 64.3739 157.688 64.7324 157.667 65.0903C157.688 65.4481 157.634 65.8063 157.507 66.1414C157.381 66.4765 157.185 66.7809 156.933 67.0343C156.681 67.2878 156.378 67.4846 156.045 67.6117C155.712 67.7389 155.356 67.7935 155 67.772H149.667C149.311 67.7935 148.955 67.7389 148.621 67.6117C148.288 67.4846 147.986 67.2878 147.734 67.0343C147.482 66.7809 147.286 66.4765 147.159 66.1414C147.033 65.8063 146.979 65.4481 147 65.0903C146.978 64.7324 147.032 64.3739 147.159 64.0386C147.285 63.7033 147.48 63.3988 147.733 63.1453C147.985 62.8918 148.287 62.695 148.621 62.568C148.954 62.441 149.311 62.3866 149.667 62.4086ZM168.333 62.4086H173.667C174.023 62.3866 174.379 62.441 174.712 62.568C175.046 62.695 175.349 62.8918 175.601 63.1453C175.853 63.3988 176.049 63.7033 176.175 64.0386C176.301 64.3739 176.355 64.7324 176.333 65.0903C176.355 65.4481 176.3 65.8063 176.174 66.1414C176.047 66.4765 175.852 66.7809 175.6 67.0343C175.348 67.2878 175.045 67.4846 174.712 67.6117C174.379 67.7389 174.022 67.7935 173.667 67.772H168.333C167.978 67.7935 167.621 67.7389 167.288 67.6117C166.955 67.4846 166.652 67.2878 166.4 67.0343C166.148 66.7809 165.953 66.4765 165.826 66.1414C165.7 65.8063 165.645 65.4481 165.667 65.0903C165.645 64.7324 165.699 64.3739 165.825 64.0386C165.951 63.7033 166.147 63.3988 166.399 63.1453C166.651 62.8918 166.954 62.695 167.288 62.568C167.621 62.441 167.977 62.3866 168.333 62.4086Z" fill="white" fill-opacity="0.15"/>
</svg>
