<svg width="359" height="217" viewBox="0 0 359 217" fill="none" xmlns="http://www.w3.org/2000/svg">
<path d="M0 0H359V217H0V0Z" fill="#1D7AD1"/>
<path fill-rule="evenodd" clip-rule="evenodd" d="M242.999 153.333V158.666C243.017 160.422 242.684 162.164 242.02 163.789C241.356 165.415 240.375 166.891 239.133 168.133C237.891 169.375 236.415 170.356 234.789 171.02C233.164 171.684 231.422 172.017 229.666 171.999H128.334C126.578 172.017 124.836 171.684 123.211 171.02C121.585 170.356 120.109 169.375 118.867 168.133C117.625 166.891 116.644 165.415 115.98 163.789C115.316 162.164 114.983 160.422 115.001 158.666V153.333H123.001V76.0004C122.981 74.9444 123.175 73.8954 123.57 72.916C123.965 71.9365 124.553 71.0468 125.3 70.3001C126.047 69.5533 126.937 68.9647 127.916 68.5696C128.896 68.1745 129.945 67.9809 131 68.0005H154.288C156.19 66.7467 158.346 65.9273 160.6 65.6005C160.379 64.6393 160.289 63.6525 160.334 62.6672C160.347 58.4279 162.037 54.366 165.035 51.3684C168.032 48.3707 172.094 46.6807 176.333 46.6674C179.926 46.6353 183.417 47.8617 186.2 50.134C190.878 46.1325 196.844 43.9546 203 44.0007C209.189 43.9959 215.186 46.1508 219.957 50.0939C224.727 54.0369 227.972 59.521 229.133 65.6005C232.43 66.0207 235.512 67.4666 237.943 69.734C240.374 72.0014 242.031 74.9754 242.68 78.2358C243.328 81.4961 242.936 84.8779 241.558 87.9029C240.179 90.928 237.885 93.4434 234.999 95.0935V153.333H242.999ZM131 73.3337C130.645 73.3124 130.288 73.3667 129.955 73.4931C129.622 73.6196 129.319 73.8153 129.067 74.0673C128.815 74.3193 128.62 74.6219 128.493 74.9551C128.367 75.2884 128.312 75.6446 128.334 76.0004V153.333H229.666V97.0668C228.786 97.2311 227.894 97.3203 227 97.3335H224.333V148H133.667V78.667H147.251C147.565 76.7898 148.212 74.9838 149.16 73.3337H131ZM147.267 84.0003H139V142.666H219V97.3335H163C159.228 97.3186 155.582 95.9732 152.704 93.5343C149.826 91.0953 147.9 87.7192 147.267 84.0003ZM237.666 81.3337C237.658 78.5071 236.532 75.7985 234.533 73.7998C232.535 71.8011 229.826 70.6748 227 70.6671H226.733C226.08 70.6355 225.458 70.3794 224.972 69.9421C224.486 69.5048 224.166 68.9131 224.066 68.2671C223.638 64.2996 222.098 60.5336 219.625 57.4017C217.152 54.2698 213.846 51.8992 210.086 50.5624C206.326 49.2255 202.265 48.9766 198.37 49.8442C194.475 50.7119 190.904 52.6609 188.067 55.4673C187.562 55.9519 186.899 56.2363 186.2 56.2673C185.849 56.2772 185.501 56.2108 185.179 56.0727C184.856 55.9345 184.568 55.728 184.333 55.4673C182.222 53.3107 179.351 52.0663 176.333 52.0006C173.507 52.0084 170.798 53.1347 168.8 55.1333C166.801 57.132 165.675 59.8406 165.667 62.6672C165.607 64.1621 165.977 65.6428 166.733 66.9338C166.887 67.3706 166.943 67.836 166.897 68.2968C166.851 68.7577 166.704 69.2028 166.467 69.6004C166.24 70.0176 165.882 70.3482 165.448 70.5411C165.014 70.7339 164.528 70.7782 164.067 70.6671H163C160.171 70.6671 157.458 71.7909 155.458 73.7913C153.457 75.7916 152.334 78.5047 152.334 81.3337C152.334 84.1626 153.457 86.8757 155.458 88.876C157.458 90.8764 160.171 92.0002 163 92.0002H227C229.826 91.9918 232.534 90.8653 234.533 88.8667C236.531 86.8682 237.658 84.16 237.666 81.3337ZM123.001 158.666H120.334C120.315 159.722 120.509 160.771 120.904 161.75C121.299 162.729 121.888 163.619 122.634 164.366C123.381 165.112 124.271 165.701 125.25 166.096C126.229 166.491 127.278 166.685 128.334 166.666H229.666C230.722 166.685 231.771 166.491 232.75 166.096C233.729 165.701 234.619 165.112 235.366 164.366C236.112 163.619 236.701 162.729 237.096 161.75C237.491 160.771 237.685 159.722 237.666 158.666H123.001Z" fill="white" fill-opacity="0.15"/>
</svg>
