<svg width="359" height="217" viewBox="0 0 359 217" fill="none" xmlns="http://www.w3.org/2000/svg">
<path d="M0 0H359V217H0V0Z" fill="#1D7AD1"/>
<path fill-rule="evenodd" clip-rule="evenodd" d="M229.055 117.853C228.835 118.136 228.547 118.359 228.217 118.499C227.887 118.64 227.527 118.694 227.171 118.656C226.817 118.666 226.466 118.599 226.141 118.46C225.816 118.322 225.524 118.115 225.286 117.853C225.031 117.614 224.828 117.325 224.689 117.004C224.55 116.683 224.478 116.337 224.478 115.987C224.478 115.638 224.55 115.292 224.689 114.971C224.828 114.65 225.031 114.361 225.286 114.122C233.832 105.352 238.615 93.5838 238.615 81.3306C238.615 69.0774 233.832 57.3096 225.286 48.5395C225.031 48.3004 224.828 48.0114 224.689 47.6905C224.55 47.3696 224.478 47.0235 224.478 46.6737C224.478 46.324 224.55 45.9779 224.689 45.657C224.828 45.3361 225.031 45.0471 225.286 44.808C225.53 44.5545 225.824 44.3529 226.148 44.2153C226.472 44.0776 226.82 44.0066 227.172 44.0066C227.524 44.0066 227.872 44.0776 228.196 44.2153C228.52 44.3529 228.813 44.5545 229.058 44.808C238.634 54.5462 244.001 67.6647 244 81.3311C243.999 94.9976 238.632 108.116 229.055 117.853ZM217.745 105.055C217.233 105.54 216.564 105.825 215.86 105.858C215.507 105.868 215.156 105.801 214.831 105.662C214.505 105.524 214.214 105.317 213.975 105.055C213.721 104.816 213.517 104.528 213.378 104.207C213.24 103.886 213.168 103.54 213.168 103.191C213.168 102.841 213.24 102.495 213.378 102.175C213.517 101.854 213.721 101.565 213.975 101.326C216.727 98.6087 218.911 95.3706 220.402 91.8004C221.893 88.2301 222.661 84.3988 222.661 80.5289C222.661 76.659 221.893 72.8277 220.402 69.2574C218.911 65.6872 216.727 62.4491 213.975 59.7313C213.72 59.4922 213.517 59.2032 213.378 58.8823C213.239 58.5614 213.168 58.2153 213.168 57.8655C213.168 57.5158 213.239 57.1697 213.378 56.8488C213.517 56.5279 213.72 56.2389 213.975 55.9998C214.22 55.7467 214.513 55.5455 214.837 55.4081C215.16 55.2707 215.508 55.1998 215.86 55.1998C216.212 55.1998 216.56 55.2707 216.884 55.4081C217.207 55.5455 217.5 55.7467 217.745 55.9998C221.006 59.1957 223.597 63.0115 225.366 67.2233C227.135 71.4352 228.046 75.9584 228.046 80.5275C228.046 85.0967 227.135 89.6199 225.366 93.8318C223.597 98.0436 221.006 101.859 217.745 105.055ZM204.547 94.6558C204.193 94.6663 203.842 94.6 203.517 94.4613C203.191 94.3227 202.9 94.1151 202.662 93.8528C202.407 93.6137 202.204 93.3247 202.065 93.0038C201.926 92.6829 201.855 92.3368 201.855 91.987C201.855 91.6373 201.926 91.2912 202.065 90.9703C202.204 90.6494 202.407 90.3604 202.662 90.1213C205.124 87.5869 206.501 84.1912 206.501 80.656C206.501 77.1209 205.124 73.7252 202.662 71.1908C202.407 70.9517 202.204 70.6627 202.065 70.3418C201.926 70.0209 201.855 69.6748 201.855 69.325C201.855 68.9752 201.926 68.6292 202.065 68.3083C202.204 67.9874 202.407 67.6984 202.662 67.4593C202.907 67.2062 203.2 67.005 203.523 66.8676C203.847 66.7301 204.195 66.6593 204.547 66.6593C204.899 66.6593 205.247 66.7301 205.57 66.8676C205.894 67.005 206.187 67.2062 206.432 67.4593C209.924 70.961 211.885 75.7074 211.885 80.656C211.885 85.6047 209.924 90.3511 206.432 93.8528C205.921 94.3402 205.252 94.6256 204.547 94.6558ZM183.551 93.9947L216.397 168.244C216.538 168.561 216.615 168.902 216.624 169.248C216.633 169.594 216.574 169.939 216.45 170.262C216.326 170.585 216.139 170.881 215.901 171.132C215.662 171.383 215.377 171.584 215.061 171.724C214.636 171.896 214.182 171.986 213.724 171.992C213.199 172.036 212.674 171.901 212.234 171.609C211.794 171.318 211.465 170.887 211.3 170.386L206.803 160.267C206.591 160.178 206.378 160.082 206.164 159.978L179.493 140.62L152.568 159.981H152.552L147.989 170.367C147.697 171.006 147.167 171.504 146.512 171.754C145.857 172.004 145.13 171.987 144.487 171.706C144.171 171.565 143.886 171.364 143.647 171.113C143.409 170.862 143.222 170.566 143.098 170.243C142.974 169.92 142.915 169.575 142.924 169.229C142.933 168.883 143.01 168.542 143.151 168.226L175.925 94.1365C172.802 93.2759 170.094 91.3176 168.296 88.6203C166.498 85.9231 165.73 82.6674 166.134 79.4498C166.538 76.2321 168.086 73.2678 170.495 71.0999C172.903 68.932 176.011 67.7057 179.249 67.6455C182.487 67.5852 185.639 68.6952 188.126 70.7721C190.613 72.8489 192.27 75.7536 192.793 78.954C193.316 82.1544 192.67 85.4364 190.973 88.1986C189.276 90.9609 186.642 93.0185 183.554 93.9947H183.551ZM202.606 150.816L192.552 128.124L183.535 137.049L202.606 150.816ZM156.765 150.417L175.462 137.059L166.517 128.199L156.765 150.417ZM168.795 123.006L179.488 133.596L190.245 122.942L179.488 98.663L168.795 123.006ZM179.488 73.3376C177.911 73.355 176.375 73.8391 175.073 74.7289C173.77 75.6187 172.76 76.8745 172.169 78.3381C171.578 79.8017 171.432 81.4077 171.75 82.954C172.069 84.5002 172.837 85.9176 173.958 87.0276C175.079 88.1377 176.503 88.8908 178.051 89.1921C179.599 89.4934 181.201 89.3295 182.656 88.721C184.111 88.1125 185.353 87.0866 186.227 85.7725C187.101 84.4584 187.567 82.9147 187.566 81.3359C187.581 80.2742 187.383 79.2204 186.982 78.2374C186.581 77.2543 185.986 76.3623 185.234 75.6144C184.481 74.8666 183.585 74.2784 182.6 73.8849C181.615 73.4914 180.561 73.3007 179.501 73.3242L179.488 73.3376ZM156.327 93.8662C156.107 94.1499 155.819 94.3726 155.489 94.5132C155.159 94.6538 154.799 94.7075 154.442 94.6692C154.089 94.6797 153.737 94.6134 153.412 94.4747C153.087 94.3361 152.795 94.1285 152.558 93.8662C149.066 90.3645 147.104 85.6181 147.104 80.6694C147.104 75.7207 149.066 70.9744 152.558 67.4727C152.802 67.2192 153.095 67.0176 153.419 66.8799C153.743 66.7423 154.092 66.6713 154.444 66.6713C154.796 66.6713 155.144 66.7423 155.468 66.8799C155.792 67.0176 156.085 67.2192 156.33 67.4727C156.585 67.7118 156.788 68.0007 156.927 68.3217C157.066 68.6426 157.137 68.9886 157.137 69.3384C157.137 69.6882 157.066 70.0342 156.927 70.3552C156.788 70.6761 156.585 70.965 156.33 71.2042C153.868 73.7382 152.49 77.1341 152.49 80.6694C152.49 84.2048 153.868 87.6006 156.33 90.1347C156.584 90.373 156.787 90.6609 156.926 90.9806C157.065 91.3004 157.137 91.6453 157.138 91.9941C157.139 92.3429 157.069 92.6882 156.932 93.0088C156.795 93.3293 156.593 93.6184 156.34 93.8581L156.327 93.8662ZM145.016 105.063C144.772 105.317 144.479 105.518 144.156 105.656C143.832 105.794 143.484 105.864 143.132 105.864C142.78 105.864 142.432 105.794 142.108 105.656C141.784 105.518 141.492 105.317 141.247 105.063C137.957 101.893 135.351 98.0809 133.591 93.862C131.831 89.6431 130.954 85.1074 131.014 80.5356C131.067 71.3294 134.744 62.5156 141.247 56.0078C141.492 55.7548 141.785 55.5535 142.108 55.4161C142.432 55.2787 142.78 55.2079 143.132 55.2079C143.484 55.2079 143.832 55.2787 144.155 55.4161C144.479 55.5535 144.772 55.7548 145.016 56.0078C145.271 56.2469 145.475 56.5359 145.614 56.8568C145.753 57.1777 145.824 57.5238 145.824 57.8736C145.824 58.2233 145.753 58.5694 145.614 58.8903C145.475 59.2112 145.271 59.5002 145.016 59.7393C142.285 62.468 140.117 65.7096 138.638 69.2784C137.159 72.8472 136.398 76.6731 136.398 80.5369C136.398 84.4007 137.159 88.2266 138.638 91.7954C140.117 95.3642 142.285 98.6058 145.016 101.335C145.271 101.573 145.474 101.86 145.613 102.18C145.752 102.499 145.824 102.844 145.825 103.193C145.826 103.541 145.756 103.886 145.619 104.207C145.481 104.527 145.28 104.816 145.027 105.055L145.016 105.063ZM133.717 114.122C133.972 114.361 134.175 114.65 134.314 114.971C134.453 115.292 134.524 115.638 134.524 115.987C134.524 116.337 134.453 116.683 134.314 117.004C134.175 117.325 133.972 117.614 133.717 117.853C133.205 118.338 132.536 118.623 131.832 118.656C131.479 118.666 131.128 118.599 130.802 118.461C130.477 118.322 130.185 118.115 129.947 117.853C120.369 108.115 115 94.995 115 81.3266C115 67.6581 120.369 54.5382 129.947 44.8C130.192 44.5469 130.485 44.3457 130.809 44.2082C131.132 44.0708 131.48 44 131.832 44C132.184 44 132.532 44.0708 132.856 44.2082C133.179 44.3457 133.472 44.5469 133.717 44.8C133.972 45.0391 134.175 45.328 134.314 45.6489C134.453 45.9699 134.524 46.3159 134.524 46.6657C134.524 47.0155 134.453 47.3615 134.314 47.6825C134.175 48.0034 133.972 48.2923 133.717 48.5314C125.169 57.302 120.384 69.0714 120.384 81.3266C120.384 93.5817 125.169 105.351 133.717 114.122Z" fill="white" fill-opacity="0.15"/>
</svg>
