<svg width="48" height="45" viewBox="0 0 48 45" fill="none" xmlns="http://www.w3.org/2000/svg">
<path fill-rule="evenodd" clip-rule="evenodd" d="M48 30C47.9984 30.5299 47.7872 31.0377 47.4125 31.4125C47.0377 31.7872 46.5299 31.9984 46 32H25V36H28C28.1334 35.992 28.267 36.0124 28.392 36.0598C28.5169 36.1072 28.6304 36.1806 28.7249 36.2751C28.8194 36.3696 28.8928 36.4831 28.9402 36.608C28.9876 36.733 29.008 36.8666 29 37V39H38C38.2652 39 38.5196 39.1054 38.7071 39.2929C38.8946 39.4804 39 39.7348 39 40C39 40.2652 38.8946 40.5196 38.7071 40.7071C38.5196 40.8946 38.2652 41 38 41H29V43C29.008 43.1334 28.9876 43.267 28.9402 43.392C28.8928 43.5169 28.8194 43.6304 28.7249 43.7249C28.6304 43.8194 28.5169 43.8928 28.392 43.9402C28.267 43.9876 28.1334 44.008 28 44H20C19.8666 44.008 19.733 43.9876 19.608 43.9402C19.4831 43.8928 19.3696 43.8194 19.2751 43.7249C19.1806 43.6304 19.1072 43.5169 19.0598 43.392C19.0124 43.267 18.992 43.1334 19 43V41H10C9.73478 41 9.48043 40.8946 9.29289 40.7071C9.10536 40.5196 9 40.2652 9 40C9 39.7348 9.10536 39.4804 9.29289 39.2929C9.48043 39.1054 9.73478 39 10 39H19V37C18.992 36.8666 19.0124 36.733 19.0598 36.608C19.1072 36.4831 19.1806 36.3696 19.2751 36.2751C19.3696 36.1806 19.4831 36.1072 19.608 36.0598C19.733 36.0124 19.8666 35.992 20 36H23V32H2C1.47005 31.9984 0.962265 31.7872 0.587535 31.4125C0.212805 31.0377 0.00158273 30.5299 0 30V22C0.00210851 21.6477 0.0984403 21.3025 0.279 21C0.0984403 20.6975 0.00210851 20.3523 0 20V12C0.00210851 11.6477 0.0984403 11.3025 0.279 11C0.0984403 10.6975 0.00210851 10.3523 0 10V2C0.00132012 1.46997 0.212458 0.962032 0.587245 0.587245C0.962032 0.212458 1.46997 0.00132012 2 0H46C46.53 0.00132012 47.038 0.212458 47.4128 0.587245C47.7875 0.962032 47.9987 1.46997 48 2V10C47.9979 10.3523 47.9016 10.6975 47.721 11C47.9016 11.3025 47.9979 11.6477 48 12V20C47.9979 20.3523 47.9016 20.6975 47.721 21C47.9016 21.3025 47.9979 21.6477 48 22V30ZM21 38V42H27V38H21ZM46 2H2V10H46V2ZM46 12H2V20H46V12ZM46 22H2V30H46V22ZM6 25H8C8.26522 25 8.51957 25.1054 8.70711 25.2929C8.89464 25.4804 9 25.7348 9 26C9 26.2652 8.89464 26.5196 8.70711 26.7071C8.51957 26.8946 8.26522 27 8 27H6C5.73478 27 5.48043 26.8946 5.29289 26.7071C5.10536 26.5196 5 26.2652 5 26C5 25.7348 5.10536 25.4804 5.29289 25.2929C5.48043 25.1054 5.73478 25 6 25ZM13 25H15C15.2652 25 15.5196 25.1054 15.7071 25.2929C15.8946 25.4804 16 25.7348 16 26C16 26.2652 15.8946 26.5196 15.7071 26.7071C15.5196 26.8946 15.2652 27 15 27H13C12.7348 27 12.4804 26.8946 12.2929 26.7071C12.1054 26.5196 12 26.2652 12 26C12 25.7348 12.1054 25.4804 12.2929 25.2929C12.4804 25.1054 12.7348 25 13 25ZM20 25H22C22.2652 25 22.5196 25.1054 22.7071 25.2929C22.8946 25.4804 23 25.7348 23 26C23 26.2652 22.8946 26.5196 22.7071 26.7071C22.5196 26.8946 22.2652 27 22 27H20C19.7348 27 19.4804 26.8946 19.2929 26.7071C19.1054 26.5196 19 26.2652 19 26C19 25.7348 19.1054 25.4804 19.2929 25.2929C19.4804 25.1054 19.7348 25 20 25ZM6 15H8C8.26522 15 8.51957 15.1054 8.70711 15.2929C8.89464 15.4804 9 15.7348 9 16C9 16.2652 8.89464 16.5196 8.70711 16.7071C8.51957 16.8946 8.26522 17 8 17H6C5.73478 17 5.48043 16.8946 5.29289 16.7071C5.10536 16.5196 5 16.2652 5 16C5 15.7348 5.10536 15.4804 5.29289 15.2929C5.48043 15.1054 5.73478 15 6 15ZM13 15H15C15.2652 15 15.5196 15.1054 15.7071 15.2929C15.8946 15.4804 16 15.7348 16 16C16 16.2652 15.8946 16.5196 15.7071 16.7071C15.5196 16.8946 15.2652 17 15 17H13C12.7348 17 12.4804 16.8946 12.2929 16.7071C12.1054 16.5196 12 16.2652 12 16C12 15.7348 12.1054 15.4804 12.2929 15.2929C12.4804 15.1054 12.7348 15 13 15ZM20 15H22C22.2652 15 22.5196 15.1054 22.7071 15.2929C22.8946 15.4804 23 15.7348 23 16C23 16.2652 22.8946 16.5196 22.7071 16.7071C22.5196 16.8946 22.2652 17 22 17H20C19.7348 17 19.4804 16.8946 19.2929 16.7071C19.1054 16.5196 19 16.2652 19 16C19 15.7348 19.1054 15.4804 19.2929 15.2929C19.4804 15.1054 19.7348 15 20 15ZM6 5H8C8.13345 4.99182 8.26712 5.01208 8.39215 5.05944C8.51719 5.1068 8.63074 5.18018 8.72528 5.27472C8.81982 5.36926 8.8932 5.48281 8.94056 5.60785C8.98792 5.73288 9.00818 5.86655 9 6C9.00802 6.13341 8.98765 6.26701 8.94023 6.39197C8.89281 6.51693 8.81943 6.63041 8.72492 6.72492C8.63041 6.81943 8.51693 6.89281 8.39197 6.94023C8.26701 6.98765 8.13341 7.00802 8 7H6C5.86659 7.00802 5.73299 6.98765 5.60803 6.94023C5.48307 6.89281 5.36959 6.81943 5.27508 6.72492C5.18057 6.63041 5.10719 6.51693 5.05977 6.39197C5.01235 6.26701 4.99198 6.13341 5 6C4.99182 5.86655 5.01208 5.73288 5.05944 5.60785C5.1068 5.48281 5.18018 5.36926 5.27472 5.27472C5.36926 5.18018 5.48281 5.1068 5.60785 5.05944C5.73288 5.01208 5.86655 4.99182 6 5ZM13 5H15C15.1335 4.99182 15.2671 5.01208 15.3922 5.05944C15.5172 5.1068 15.6307 5.18018 15.7253 5.27472C15.8198 5.36926 15.8932 5.48281 15.9406 5.60785C15.9879 5.73288 16.0082 5.86655 16 6C16.008 6.13341 15.9876 6.26701 15.9402 6.39197C15.8928 6.51693 15.8194 6.63041 15.7249 6.72492C15.6304 6.81943 15.5169 6.89281 15.392 6.94023C15.267 6.98765 15.1334 7.00802 15 7H13C12.8666 7.00802 12.733 6.98765 12.608 6.94023C12.4831 6.89281 12.3696 6.81943 12.2751 6.72492C12.1806 6.63041 12.1072 6.51693 12.0598 6.39197C12.0124 6.26701 11.992 6.13341 12 6C11.9918 5.86655 12.0121 5.73288 12.0594 5.60785C12.1068 5.48281 12.1802 5.36926 12.2747 5.27472C12.3693 5.18018 12.4828 5.1068 12.6078 5.05944C12.7329 5.01208 12.8665 4.99182 13 5ZM20 5H22C22.1335 4.99182 22.2671 5.01208 22.3922 5.05944C22.5172 5.1068 22.6307 5.18018 22.7253 5.27472C22.8198 5.36926 22.8932 5.48281 22.9406 5.60785C22.9879 5.73288 23.0082 5.86655 23 6C23.008 6.13341 22.9876 6.26701 22.9402 6.39197C22.8928 6.51693 22.8194 6.63041 22.7249 6.72492C22.6304 6.81943 22.5169 6.89281 22.392 6.94023C22.267 6.98765 22.1334 7.00802 22 7H20C19.8666 7.00802 19.733 6.98765 19.608 6.94023C19.4831 6.89281 19.3696 6.81943 19.2751 6.72492C19.1806 6.63041 19.1072 6.51693 19.0598 6.39197C19.0124 6.26701 18.992 6.13341 19 6C18.9918 5.86655 19.0121 5.73288 19.0594 5.60785C19.1068 5.48281 19.1802 5.36926 19.2747 5.27472C19.3693 5.18018 19.4828 5.1068 19.6078 5.05944C19.7329 5.01208 19.8665 4.99182 20 5Z" fill="white"/>
</svg>
