<svg width="48" height="48" viewBox="0 0 48 48" fill="none" xmlns="http://www.w3.org/2000/svg">
<path fill-rule="evenodd" clip-rule="evenodd" d="M48.0002 41.0003V43.0003C48.0068 43.6587 47.8819 44.3118 47.633 44.9214C47.384 45.531 47.016 46.0848 46.5504 46.5504C46.0848 47.016 45.531 47.3841 44.9214 47.633C44.3118 47.882 43.6587 48.0068 43.0002 48.0003H5.00025C4.34181 48.0068 3.68869 47.882 3.07911 47.633C2.46952 47.3841 1.91572 47.016 1.45011 46.5504C0.984511 46.0848 0.616461 45.531 0.367506 44.9214C0.118552 44.3118 -0.00630444 43.6587 0.000244933 43.0003V41.0003H3.00024V12.0003C2.99292 11.6043 3.06551 11.2109 3.21368 10.8436C3.36185 10.4763 3.58256 10.1427 3.8626 9.86263C4.14265 9.58258 4.47629 9.36187 4.84358 9.2137C5.21087 9.06553 5.60426 8.99294 6.00025 9.00027H14.7332C15.4466 8.53012 16.2547 8.22284 17.1002 8.10027C17.0172 7.73984 16.9835 7.36977 17.0002 7.00027C17.0053 5.41051 17.639 3.8873 18.7631 2.76316C19.8873 1.63903 21.4105 1.00528 23.0002 1.00027C24.3475 0.988238 25.6566 1.44816 26.7002 2.30027C28.4546 0.799714 30.6917 -0.0170174 33.0002 0.00026888C35.3212 -0.00153962 37.5701 0.806558 39.3591 2.28522C41.1481 3.76389 42.3651 5.82044 42.8002 8.10027C44.0368 8.25784 45.1926 8.80009 46.1043 9.65036C47.0159 10.5006 47.6372 11.6159 47.8804 12.8386C48.1236 14.0612 47.9764 15.3294 47.4595 16.4638C46.9427 17.5982 46.0824 18.5415 45.0002 19.1603V41.0003H48.0002ZM6.00025 11.0003C5.86683 10.9922 5.73323 11.0126 5.60827 11.06C5.48331 11.1075 5.36983 11.1808 5.27533 11.2754C5.18082 11.3699 5.10743 11.4833 5.06002 11.6083C5.0126 11.7333 4.99223 11.8669 5.00025 12.0003V41.0003H43.0002V19.9003C42.6703 19.9619 42.3358 19.9953 42.0002 20.0003H41.0002V39.0003H7.00025V13.0003H12.0942C12.2121 12.2963 12.4545 11.619 12.8102 11.0003H6.00025ZM12.1002 15.0003H9.00025V37.0003H39.0002V20.0003H18.0002C16.5856 19.9947 15.2182 19.4902 14.139 18.5756C13.0597 17.6609 12.3378 16.3949 12.1002 15.0003ZM46.0002 14.0003C45.9973 12.9403 45.575 11.9246 44.8255 11.175C44.076 10.4255 43.0602 10.0032 42.0002 10.0003H41.9002C41.6554 9.98841 41.4222 9.89237 41.2399 9.72838C41.0577 9.56439 40.9377 9.34252 40.9002 9.10027C40.7395 7.61245 40.1623 6.20016 39.2349 5.02569C38.3075 3.85123 37.0676 2.96225 35.6576 2.46092C34.2476 1.95958 32.7247 1.86624 31.2641 2.19161C29.8034 2.51698 28.4641 3.24786 27.4002 4.30027C27.2111 4.48203 26.9623 4.58868 26.7002 4.60027C26.5688 4.604 26.4381 4.5791 26.3172 4.5273C26.1964 4.4755 26.0882 4.39803 26.0002 4.30027C25.2086 3.49153 24.1317 3.0249 23.0002 3.00027C21.9403 3.00317 20.9245 3.42553 20.175 4.17505C19.4255 4.92457 19.0031 5.9403 19.0002 7.00027C18.9779 7.56087 19.1167 8.11613 19.4002 8.60027C19.458 8.76407 19.479 8.93859 19.4617 9.11142C19.4444 9.28424 19.3893 9.45115 19.3002 9.60027C19.2152 9.7567 19.0808 9.88068 18.9181 9.95301C18.7554 10.0253 18.5734 10.0419 18.4002 10.0003H18.0002C16.9394 10.0003 15.922 10.4217 15.1718 11.1718C14.4217 11.922 14.0002 12.9394 14.0002 14.0003C14.0002 15.0611 14.4217 16.0786 15.1718 16.8287C15.922 17.5788 16.9394 18.0003 18.0002 18.0003H42.0002C43.0601 17.9971 44.0757 17.5747 44.8252 16.8252C45.5746 16.0757 45.9971 15.0602 46.0002 14.0003ZM3.00024 43.0003H2.00024C1.99306 43.3962 2.06574 43.7895 2.21396 44.1568C2.36218 44.524 2.5829 44.8576 2.86292 45.1376C3.14294 45.4176 3.47652 45.6383 3.84375 45.7865C4.21097 45.9348 4.6043 46.0075 5.00025 46.0003H43.0002C43.3962 46.0075 43.7895 45.9348 44.1567 45.7865C44.524 45.6383 44.8576 45.4176 45.1376 45.1376C45.4176 44.8576 45.6383 44.524 45.7865 44.1568C45.9347 43.7895 46.0074 43.3962 46.0002 43.0003H3.00024Z" fill="white"/>
</svg>
