<svg width="1098" height="304" viewBox="0 0 1098 304" fill="none" xmlns="http://www.w3.org/2000/svg">
<path d="M374.48 152.92C367.653 152.92 360.72 151.693 353.68 149.24C346.747 146.68 340.56 142.947 335.12 138.04L350.8 119.16C354.533 122.147 358.587 124.6 362.96 126.52C367.333 128.333 371.387 129.24 375.12 129.24C383.013 129.24 386.96 126.787 386.96 121.88C386.96 120.28 386.427 119 385.36 118.04C384.293 116.973 382.64 115.96 380.4 115C378.16 113.933 375.653 112.867 372.88 111.8L359.92 106.36C353.733 103.907 348.667 100.227 344.72 95.32C340.88 90.4133 338.96 84.44 338.96 77.4C338.96 71.5333 340.613 66.1467 343.92 61.24C347.227 56.2267 351.813 52.28 357.68 49.4C363.653 46.52 370.32 45.08 377.68 45.08C383.867 45.08 390 46.2533 396.08 48.6C402.267 50.9467 407.653 54.4133 412.24 59L398.48 76.28C394.853 73.72 391.387 71.8533 388.08 70.68C384.88 69.4 381.413 68.76 377.68 68.76C374.267 68.76 371.6 69.4 369.68 70.68C367.76 71.8533 366.8 73.56 366.8 75.8C366.8 77.4 367.387 78.7333 368.56 79.8C369.733 80.8667 371.547 81.9333 374 83C376.453 84.0667 379.173 85.1333 382.16 86.2L394.8 91.16C408.347 96.4933 415.12 105.987 415.12 119.64C415.12 125.613 413.467 131.16 410.16 136.28C406.96 141.293 402.267 145.347 396.08 148.44C390 151.427 382.8 152.92 374.48 152.92ZM431.032 47H469.112C481.699 47 491.886 49.72 499.673 55.16C507.459 60.4933 511.352 69.2933 511.352 81.56C511.352 89.6667 509.432 96.4933 505.593 102.04C501.859 107.48 496.846 111.533 490.553 114.2C484.259 116.76 477.326 118.04 469.752 118.04H458.552V151H431.032V47ZM468.473 96.28C473.806 96.28 477.806 95 480.472 92.44C483.139 89.88 484.472 86.2533 484.472 81.56C484.472 77.08 483.032 73.8267 480.152 71.8C477.379 69.7733 473.272 68.76 467.832 68.76H458.552V96.28H468.473ZM568.887 128.92H539.767L534.647 151H506.487L538.167 47H571.447L603.128 151H574.007L568.887 128.92ZM563.927 107.64L562.167 100.44C560.781 95 559.394 89.0267 558.007 82.52L554.487 67.48H553.847L552.887 71.96C550.541 83.6933 548.407 93.1867 546.487 100.44L544.727 107.64H563.927ZM655.803 152.92C646.736 152.92 638.416 150.947 630.843 147C623.376 142.947 617.403 136.92 612.923 128.92C608.443 120.92 606.203 111.213 606.203 99.8C606.203 88.6 608.496 78.8933 613.083 70.68C617.776 62.36 623.909 56.0133 631.483 51.64C639.163 47.2667 647.483 45.08 656.443 45.08C662.843 45.08 668.816 46.36 674.363 48.92C679.909 51.48 684.709 54.7867 688.763 58.84L674.363 76.44C671.483 73.88 668.709 71.96 666.043 70.68C663.376 69.4 660.389 68.76 657.083 68.76C653.029 68.76 649.243 69.9867 645.723 72.44C642.309 74.8933 639.536 78.4133 637.403 83C635.376 87.48 634.363 92.76 634.363 98.84C634.363 108.44 636.389 115.907 640.443 121.24C644.496 126.573 649.936 129.24 656.763 129.24C663.803 129.24 670.096 126.253 675.643 120.28L690.043 137.56C685.669 142.68 680.549 146.52 674.683 149.08C668.923 151.64 662.629 152.92 655.803 152.92ZM703.632 47H770.832V70.04H731.152V86.36H765.072V109.4H731.152V127.96H772.432V151H703.632V47Z" fill="#1A9ED8"/>
<path d="M791.739 47H819.899L842.939 93.4L852.859 116.76H853.499C853.392 115.587 853.125 113.453 852.699 110.36C850.885 95.64 849.979 84.5467 849.979 77.08V47H876.219V151H848.059L825.019 104.44L815.099 81.24H814.459L815.419 89.72C817.125 103.16 817.979 113.56 817.979 120.92V151H791.739V47ZM898.439 47H965.639V70.04H925.959V86.36H959.879V109.4H925.959V127.96H967.239V151H898.439V47ZM1006.39 70.04H978.865V47H1061.43V70.04H1033.91V151H1006.39V70.04Z" fill="#222C34"/>
<path d="M353.59 214.425H360.22V257H353.59V214.425ZM378.577 214.425H385.402L399.572 239.58L404.057 248.55H404.317C404.23 247.163 404.144 246.188 404.057 245.625C404.014 245.148 403.905 243.697 403.732 241.27C403.559 238.843 403.472 236.568 403.472 234.445V214.425H409.777V257H402.952L388.782 231.78L384.297 222.875H384.037L384.297 226.125C384.34 226.645 384.449 228.053 384.622 230.35C384.795 232.647 384.882 234.792 384.882 236.785V257H378.577V214.425ZM436.839 220.015H424.294V214.425H456.014V220.015H443.469V257H436.839V220.015ZM470.509 214.425H495.664V220.015H477.139V231.975H492.804V237.565H477.139V251.41H496.314V257H470.509V214.425ZM535.587 257L526.032 239.775H518.947V257H512.317V214.425H526.227C530.994 214.425 534.742 215.4 537.472 217.35C540.202 219.257 541.567 222.398 541.567 226.775C541.567 229.938 540.765 232.538 539.162 234.575C537.602 236.568 535.435 237.998 532.662 238.865L543.062 257H535.587ZM518.947 234.445H525.447C528.567 234.445 530.929 233.817 532.532 232.56C534.179 231.26 535.002 229.332 535.002 226.775C535.002 224.262 534.2 222.463 532.597 221.38C531.037 220.297 528.654 219.755 525.447 219.755H518.947V234.445ZM557.299 214.425H564.124L578.294 239.58L582.779 248.55H583.039C582.952 247.163 582.866 246.188 582.779 245.625C582.736 245.148 582.627 243.697 582.454 241.27C582.281 238.843 582.194 236.568 582.194 234.445V214.425H588.499V257H581.674L567.504 231.78L563.019 222.875H562.759L563.019 226.125C563.062 226.645 563.171 228.053 563.344 230.35C563.517 232.647 563.604 234.792 563.604 236.785V257H557.299V214.425ZM606.851 214.425H632.006V220.015H613.481V231.975H629.146V237.565H613.481V251.41H632.656V257H606.851V214.425ZM657.37 220.015H644.825V214.425H676.545V220.015H664V257H657.37V220.015ZM711.202 214.425H724.072C734.905 214.425 740.322 218.715 740.322 227.295C740.322 231.758 738.848 235.138 735.902 237.435C732.998 239.688 729.142 240.815 724.332 240.815H717.832V257H711.202V214.425ZM723.682 235.485C727.105 235.485 729.64 234.813 731.287 233.47C732.933 232.127 733.757 230.068 733.757 227.295C733.757 224.565 732.912 222.637 731.222 221.51C729.575 220.34 726.975 219.755 723.422 219.755H717.832V235.485H723.682ZM779.009 257L769.454 239.775H762.369V257H755.739V214.425H769.649C774.416 214.425 778.164 215.4 780.894 217.35C783.624 219.257 784.989 222.398 784.989 226.775C784.989 229.938 784.188 232.538 782.584 234.575C781.024 236.568 778.858 237.998 776.084 238.865L786.484 257H779.009ZM762.369 234.445H768.869C771.989 234.445 774.351 233.817 775.954 232.56C777.601 231.26 778.424 229.332 778.424 226.775C778.424 224.262 777.623 222.463 776.019 221.38C774.459 220.297 772.076 219.755 768.869 219.755H762.369V234.445ZM816.906 257.78C813.266 257.78 810.038 256.892 807.221 255.115C804.448 253.295 802.281 250.717 800.721 247.38C799.161 244 798.381 240.057 798.381 235.55C798.381 231.043 799.161 227.143 800.721 223.85C802.281 220.557 804.448 218.043 807.221 216.31C810.038 214.533 813.266 213.645 816.906 213.645C820.546 213.645 823.753 214.533 826.526 216.31C829.343 218.043 831.531 220.557 833.091 223.85C834.651 227.143 835.431 231.043 835.431 235.55C835.431 240.057 834.651 244 833.091 247.38C831.531 250.717 829.343 253.295 826.526 255.115C823.753 256.892 820.546 257.78 816.906 257.78ZM816.906 251.995C819.246 251.995 821.305 251.323 823.081 249.98C824.858 248.637 826.223 246.73 827.176 244.26C828.13 241.747 828.606 238.843 828.606 235.55C828.606 230.567 827.545 226.645 825.421 223.785C823.298 220.882 820.46 219.43 816.906 219.43C813.353 219.43 810.515 220.882 808.391 223.785C806.268 226.645 805.206 230.567 805.206 235.55C805.206 238.843 805.683 241.747 806.636 244.26C807.59 246.73 808.955 248.637 810.731 249.98C812.508 251.323 814.566 251.995 816.906 251.995ZM845.062 214.425H852.082L858.452 236.525C858.798 237.738 859.102 238.865 859.362 239.905C859.665 240.945 859.947 241.898 860.207 242.765C861.073 246.058 861.788 248.615 862.352 250.435H862.612C863.695 246.795 864.562 243.718 865.212 241.205C865.125 241.508 865.558 239.948 866.512 236.525L872.817 214.425H879.577L866.252 257H858.452L845.062 214.425ZM892.209 214.425H898.839V257H892.209V214.425ZM917.196 214.425H928.246C934.833 214.425 939.881 216.223 943.391 219.82C946.944 223.417 948.721 228.66 948.721 235.55C948.721 242.44 946.966 247.748 943.456 251.475C939.946 255.158 934.984 257 928.571 257H917.196V214.425ZM927.791 251.605C932.384 251.605 935.873 250.262 938.256 247.575C940.683 244.845 941.896 240.837 941.896 235.55C941.896 230.307 940.704 226.385 938.321 223.785C935.938 221.142 932.428 219.82 927.791 219.82H923.826V251.605H927.791ZM964.717 214.425H989.872V220.015H971.347V231.975H987.012V237.565H971.347V251.41H990.522V257H964.717V214.425ZM1029.8 257L1020.24 239.775H1013.16V257H1006.53V214.425H1020.44C1025.2 214.425 1028.95 215.4 1031.68 217.35C1034.41 219.257 1035.78 222.398 1035.78 226.775C1035.78 229.938 1034.97 232.538 1033.37 234.575C1031.81 236.568 1029.64 237.998 1026.87 238.865L1037.27 257H1029.8ZM1013.16 234.445H1019.66C1022.78 234.445 1025.14 233.817 1026.74 232.56C1028.39 231.26 1029.21 229.332 1029.21 226.775C1029.21 224.262 1028.41 222.463 1026.81 221.38C1025.25 220.297 1022.86 219.755 1019.66 219.755H1013.16V234.445Z" fill="#91969A"/>
<path d="M184.97 84.3933C186.991 84.8758 189.062 85.3089 191.244 85.1204C207.406 83.6336 242.464 126.605 264.43 160.129C263.711 169.912 261.792 179.36 258.819 188.377C241.698 158.69 202.371 103.777 186.832 103.777C184.147 103.777 181.317 102.865 178.2 102.53C171.256 101.69 165.83 101.124 159.525 98.1533C150.656 103.347 141.736 108.961 132.95 114.88C155.486 149.24 157.515 159.443 189.853 173.269C225.561 189.072 230.311 198.963 236.23 228.518C231.338 234.321 225.871 239.597 219.972 244.297C211.644 215.15 220.668 207.437 182.227 190.87C144.73 174.8 140.746 161.826 117.213 125.912C111.565 130.029 106.046 134.239 100.685 138.506C124.719 163.539 143.643 165.295 162.421 206.745C177.298 239.672 185.998 234.013 210.812 250.963C204.625 255.088 198.055 258.637 191.148 261.466C164.554 246.4 158.369 244.257 144.916 214.659C128.776 178.424 111.722 177.993 85.9318 150.774C79.9451 155.984 74.2782 161.216 69.043 166.415C82.7277 186.246 86.3194 204.983 94.6542 214.659C99.1629 219.887 105.78 223.675 112.782 227.704C130.243 237.607 146.187 249.984 152.637 270.484C145.642 270.887 138.74 270.812 131.583 269.956C120.606 242.491 87.4905 251.414 67.173 204.108L66.2139 201.854C63.367 195.162 59.9542 187.743 55.6067 180.799C48.5533 189.008 42.8111 196.962 38.8981 204.359C37.3697 207.247 35.8925 210.568 34.9122 213.912C99.6991 326.907 272.007 280.245 272.007 151.017C272.007 118.102 259.405 88.068 238.779 65.482C223.957 67.5337 205.172 74.4058 184.97 84.3933Z" fill="url(#paint0_linear)"/>
<path d="M32.4362 157.95C30.1327 156.784 27.7918 155.855 25.449 155.189C25.401 153.798 25.3531 152.407 25.3531 151.017C25.3531 145.837 25.6893 140.705 26.3602 135.718C33.1239 137.033 39.8123 139.802 46.0897 143.713C51.4396 138.451 57.1448 133.162 63.18 127.876C54.0894 121.13 43.9517 119.243 31.2526 113.896C33.2198 107.757 35.7133 101.858 38.6863 96.247C51.6084 101.614 64.5181 103.845 78.174 115.321C84.0778 110.574 90.2224 105.849 96.6187 101.167C84.5315 91.1906 69.1774 85.5223 50.4838 77.7342C54.6567 72.3148 59.2608 67.327 64.2965 62.7229C80.6713 69.2833 97.1007 76.3156 109.906 87.2302C110.901 88.0939 111.84 88.961 112.773 89.8305C122.256 83.4188 131.857 77.3764 141.457 71.7748C116.753 43.7555 101.655 59.7624 85.59 47.1357C94.7018 41.8602 104.63 37.7836 115.037 35.0984C129.255 37.2306 143.194 43.5881 158.57 62.276C175.489 53.3119 192.03 45.8753 207.344 40.4535C123.522 -6.96628 18.1592 53.6999 18.1592 151.017C18.1592 158.396 18.8277 165.618 20.043 172.655C23.8203 167.819 27.9534 162.911 32.4362 157.95Z" fill="url(#paint1_linear)"/>
<path d="M273.782 113.321C272.056 107.374 269.946 101.618 267.355 96.0552C273.35 83.8735 274.502 73.7061 269.897 66.9438C235.376 16.7247 -3.49969 182.915 29.7169 231.732C32.6425 236.048 37.7262 238.638 44.5364 239.597C49.3803 245.113 54.7042 250.244 60.4114 254.896C-40.5876 277.38 -9.74351 182.633 114.222 97.4939C146.323 75.5036 187.535 52.9248 224.001 42.6289C257.572 32.7973 283.326 33.8524 293.014 47.9045C302.558 61.8122 294.501 85.8398 273.782 113.321Z" fill="url(#paint2_linear)"/>
<defs>
<linearGradient id="paint0_linear" x1="153.46" y1="65.482" x2="153.46" y2="277.838" gradientUnits="userSpaceOnUse">
<stop stop-color="#1D7AD1"/>
<stop offset="1" stop-color="#0FC9DF"/>
</linearGradient>
<linearGradient id="paint1_linear" x1="112.752" y1="24" x2="112.752" y2="172.655" gradientUnits="userSpaceOnUse">
<stop stop-color="#1D7AD1"/>
<stop offset="1" stop-color="#0FC9DF"/>
</linearGradient>
<linearGradient id="paint2_linear" x1="148.5" y1="36.1524" x2="148.5" y2="258.252" gradientUnits="userSpaceOnUse">
<stop stop-color="#1D7AD1"/>
<stop offset="1" stop-color="#0FC9DF"/>
</linearGradient>
</defs>
</svg>
