<?xml version="1.0" encoding="UTF-8"?>
<!DOCTYPE svg PUBLIC "-//W3C//DTD SVG 1.1//EN" "http://www.w3.org/Graphics/SVG/1.1/DTD/svg11.dtd">
<!-- Creator: CorelDRAW 2019 (64-Bit) -->
<svg xmlns="http://www.w3.org/2000/svg" xml:space="preserve" width="100mm" height="100mm" version="1.1" style="shape-rendering:geometricPrecision; text-rendering:geometricPrecision; image-rendering:optimizeQuality; fill-rule:evenodd; clip-rule:evenodd"
viewBox="0 0 10000 10000"
 xmlns:xlink="http://www.w3.org/1999/xlink"
 xmlns:xodm="http://www.corel.com/coreldraw/odm/2003">
 <defs>
  <style type="text/css">
   <![CDATA[
    .fil0 {fill:white;fill-rule:nonzero}
   ]]>
  </style>
 </defs>
 <g id="Слой_x0020_1">
  <metadata id="CorelCorpID_0Corel-Layer"/>
  <g id="_1966164380976">
   <path class="fil0" d="M3398.32 8784.03c11.48,14.26 46.44,49.15 148.19,110.42 77.17,46.36 299.02,131.84 455.5,83.32 61.01,-19.08 103.33,-56.05 132.62,-117.03l3.61 -9.81c36.58,-95.56 108.84,-327.33 -9.88,-414.46 -112.44,-82.6 -178.52,-170.99 -222.28,-229.32 -7.13,-9.59 -15.53,-20.89 -23.15,-30.56 -75.47,31.42 -157.13,58.76 -255.4,85.86 -183.54,50.33 -252.29,104.68 -266.43,124.79 1.15,1.44 2.86,4.74 5.91,9.26 117,176.73 66.2,302.23 38.8,369.49 -2.4,5.87 -5.31,11.99 -7.49,18.04zm752.56 431.08c-21.45,10.15 -43.85,18.92 -67.15,26.11 -268.29,83.1 -581.24,-51.45 -679.17,-110.42 -263.69,-158.47 -330.29,-281.23 -254.13,-468.93 18.53,-45.68 23.55,-57.97 -13.18,-113.38 -69.7,-105.11 -58.2,-196.61 -36.38,-254.99 48.43,-129.56 196.97,-226.82 453.82,-297.33 97.71,-26.99 175.6,-53.6 245.19,-84.23 173.37,-76.36 273.6,57.81 327.49,129.82 39.92,53.45 85.18,113.97 164.62,172.23 111.24,81.65 272,283.47 109.65,720.94l0.2 5.56 -13.29 29.03c-51.44,112.21 -132.93,196.06 -237.67,245.59z"/>
   <path class="fil0" d="M8366.95 7678.86c-31.92,15.09 -69.62,17.98 -105.43,5.16 -71.81,-25.7 -109.08,-104.5 -83.39,-176.31l65.72 -183.67c25.58,-71.74 104.63,-109.13 176.31,-83.39 71.81,25.71 109.08,104.51 83.39,176.33l-65.73 183.65c-12.81,35.82 -38.95,63.13 -70.87,78.23z"/>
   <path class="fil0" d="M9475.66 7764.81c-31.93,15.1 -69.61,17.97 -105.43,5.16 -71.81,-25.69 -109.08,-104.49 -83.39,-176.31l65.72 -183.66c25.57,-71.75 104.62,-109.14 176.31,-83.38 71.81,25.69 109.08,104.49 83.38,176.31l-65.71 183.66c-12.82,35.81 -38.97,63.12 -70.88,78.22z"/>
   <path class="fil0" d="M8852.21 8059.66c-31.93,15.11 -69.61,17.98 -105.42,5.17 -71.82,-25.69 -109.09,-104.49 -83.39,-176.31l65.71 -183.66c25.57,-71.75 104.62,-109.14 176.31,-83.38 71.81,25.69 109.08,104.49 83.38,176.31l-65.71 183.65c-12.81,35.82 -38.95,63.12 -70.88,78.22z"/>
   <path class="fil0" d="M8570.85 6819.52c-31.92,15.1 -69.62,17.98 -105.43,5.16 -71.81,-25.68 -109.08,-104.48 -83.38,-176.3l65.71 -183.65c25.57,-71.77 104.62,-109.15 176.31,-83.39 71.81,25.69 109.08,104.49 83.38,176.3l-65.71 183.66c-12.82,35.82 -38.96,63.13 -70.88,78.22z"/>
   <path class="fil0" d="M9679.56 6905.49c-31.93,15.1 -69.62,17.98 -105.43,5.16 -71.82,-25.7 -109.09,-104.5 -83.4,-176.32l65.72 -183.65c25.58,-71.75 104.62,-109.13 176.31,-83.39 71.82,25.7 109.09,104.5 83.38,176.31l-65.71 183.66c-12.81,35.82 -38.95,63.13 -70.87,78.23z"/>
   <path class="fil0" d="M9056.11 7200.35c-31.91,15.09 -69.62,17.98 -105.43,5.16 -71.81,-25.71 -109.07,-104.51 -83.39,-176.32l65.73 -183.66c25.57,-71.74 104.62,-109.13 176.3,-83.39 71.81,25.71 109.08,104.51 83.39,176.31l-65.73 183.67c-12.81,35.82 -38.94,63.13 -70.87,78.23z"/>
   <path class="fil0" d="M6153.02 1707.3c-31.92,15.1 -69.61,17.98 -105.43,5.17 -71.82,-25.7 -109.09,-104.51 -83.38,-176.31l65.71 -183.67c25.57,-71.74 104.62,-109.13 176.3,-83.39 71.83,25.7 109.1,104.51 83.39,176.31l-65.71 183.67c-12.81,35.81 -38.96,63.13 -70.88,78.22z"/>
   <path class="fil0" d="M7261.72 1793.25c-31.92,15.1 -69.61,17.98 -105.43,5.16 -71.82,-25.7 -109.09,-104.5 -83.38,-176.3l65.71 -183.65c25.57,-71.77 104.62,-109.15 176.31,-83.39 71.81,25.68 109.09,104.49 83.39,176.31l-65.72 183.65c-12.81,35.82 -38.95,63.12 -70.88,78.22z"/>
   <path class="fil0" d="M6638.28 2088.11c-31.91,15.1 -69.62,17.98 -105.44,5.16 -71.8,-25.7 -109.07,-104.5 -83.38,-176.3l65.73 -183.66c25.57,-71.76 104.62,-109.15 176.31,-83.39 71.8,25.69 109.07,104.5 83.38,176.31l-65.73 183.66c-12.81,35.82 -38.94,63.12 -70.87,78.22z"/>
   <path class="fil0" d="M6356.91 847.97c-31.92,15.1 -69.61,17.98 -105.43,5.16 -71.81,-25.7 -109.08,-104.5 -83.38,-176.3l65.71 -183.66c25.57,-71.76 104.62,-109.14 176.31,-83.39 71.82,25.69 109.09,104.49 83.39,176.31l-65.72 183.66c-12.81,35.81 -38.95,63.12 -70.88,78.22z"/>
   <path class="fil0" d="M7465.61 933.92c-31.91,15.09 -69.61,17.98 -105.42,5.16 -71.81,-25.69 -109.08,-104.49 -83.39,-176.31l65.73 -183.65c25.56,-71.76 104.61,-109.15 176.31,-83.39 71.79,25.7 109.06,104.5 83.38,176.31l-65.73 183.66c-12.81,35.81 -38.95,63.12 -70.88,78.22z"/>
   <path class="fil0" d="M6842.18 1228.77c-31.93,15.1 -69.61,17.98 -105.43,5.17 -71.82,-25.69 -109.08,-104.49 -83.39,-176.31l65.72 -183.65c25.57,-71.76 104.62,-109.15 176.31,-83.39 71.81,25.69 109.08,104.49 83.38,176.31l-65.71 183.65c-12.82,35.82 -38.97,63.13 -70.88,78.22z"/>
   <path class="fil0" d="M6309.7 3006.41c-756.24,357.66 -1080.55,1264.03 -722.89,2020.26 357.66,756.24 1264.02,1080.55 2020.26,722.89 756.23,-357.66 1080.55,-1264.02 722.88,-2020.26 -357.66,-756.23 -1263.89,-1080.61 -2020.25,-722.89zm1415.32 2992.53c-893.77,422.7 -1964.89,39.44 -2387.59,-854.33 -422.7,-893.75 -39.44,-1964.87 854.33,-2387.58 893.77,-422.71 1964.87,-39.43 2387.57,854.32 422.71,893.77 39.46,1964.88 -854.31,2387.59z"/>
   <path class="fil0" d="M2423.99 5759.64c-59.1,27.95 -131.52,10.64 -170.99,-44.41 -44.36,-61.87 -30.07,-148.12 31.8,-192.48l3760.89 -2694.19c62.24,-44.24 148.11,-30.08 192.48,31.79 44.37,61.87 30.07,148.11 -31.78,192.48l-3760.9 2694.19c-6.83,4.91 -14.14,9.14 -21.5,12.62z"/>
   <path class="fil0" d="M2186.49 8160.65c-54.23,25.65 -121.04,13.46 -162.63,-33.85 -50.28,-57.26 -44.48,-144.38 12.77,-194.64l4529.25 -3973.07c57.26,-50.57 144.36,-44.46 194.63,12.79 50.28,57.23 44.48,144.36 -12.77,194.62l-4529.25 3973.07c-9.89,8.78 -20.65,15.71 -32,21.08z"/>
   <path class="fil0" d="M4916.15 7479.97c-51.25,24.23 -114.3,15.14 -156.61,-27.24 -53.87,-53.86 -53.8,-141.17 0.06,-195.03l1450.79 -1449.04c54.11,-53.67 141.3,-53.87 195.03,0.06 53.86,53.88 53.8,141.18 -0.07,195.04l-1450.79 1449.04c-11.48,11.53 -24.44,20.56 -38.41,27.17z"/>
   <path class="fil0" d="M5302.09 9586.12c-44.64,21.11 -99.1,17.58 -141.53,-14.07 -61.07,-45.58 -73.69,-131.92 -28.17,-193.13l2987.51 -4006.78c45.57,-61.07 131.87,-73.81 192.99,-28.1 61.08,45.57 73.69,131.9 28.16,193.11l-2987.5 4006.79c-13.93,18.64 -31.77,32.87 -51.46,42.18z"/>
   <path class="fil0" d="M725.22 3969.22l291.16 104.29 104.22 -291.29 -291.28 -104.22 -104.1 291.22zm457.93 456.91l-810.68 -290.08 290.08 -810.67 810.8 290.01 -290.2 810.74z"/>
   <path class="fil0" d="M804.9 3626.37c-68.83,32.55 -151.11,3.11 -183.66,-65.72l-117.94 -249.38c-32.55,-68.82 -3.11,-151.1 65.72,-183.65 68.83,-32.55 151.1,-3.11 183.65,65.71l117.95 249.38c32.55,68.83 3.11,151.11 -65.72,183.66z"/>
   <path class="fil0" d="M1605.26 3705.58l-249.38 117.94c-68.83,32.55 -151.11,3.11 -183.65,-65.71 -32.55,-68.82 -3.12,-151.1 65.71,-183.66l249.38 -117.94c68.83,-32.55 151.11,-3.11 183.66,65.72 32.54,68.81 3.11,151.1 -65.72,183.65z"/>
   <path class="fil0" d="M1276.68 4623.88c-68.83,32.56 -151.11,3.11 -183.66,-65.71l-117.94 -249.38c-32.55,-68.82 -3.12,-151.1 65.71,-183.66 68.83,-32.55 151.11,-3.1 183.66,65.72l117.94 249.38c32.55,68.82 3.12,151.1 -65.71,183.65z"/>
   <path class="fil0" d="M607.75 4177.35l-249.38 117.94c-68.82,32.55 -151.11,3.11 -183.65,-65.71 -32.55,-68.82 -3.11,-151.1 65.71,-183.65l249.38 -117.95c68.83,-32.55 151.11,-3.11 183.66,65.72 32.54,68.82 3.11,151.1 -65.72,183.65z"/>
  </g>
 </g>
</svg>
