<?xml version="1.0" encoding="UTF-8"?>
<!DOCTYPE svg PUBLIC "-//W3C//DTD SVG 1.1//EN" "http://www.w3.org/Graphics/SVG/1.1/DTD/svg11.dtd">
<!-- Creator: CorelDRAW 2019 (64-Bit) -->
<svg xmlns="http://www.w3.org/2000/svg" xml:space="preserve" width="82.594mm" height="84.8633mm" version="1.1" style="shape-rendering:geometricPrecision; text-rendering:geometricPrecision; image-rendering:optimizeQuality; fill-rule:evenodd; clip-rule:evenodd"
viewBox="0 0 1982.62 2037.09"
 xmlns:xlink="http://www.w3.org/1999/xlink"
 xmlns:xodm="http://www.corel.com/coreldraw/odm/2003">
 <defs>
  <style type="text/css">
   <![CDATA[
    .fil0 {fill:white;fill-rule:nonzero}
   ]]>
  </style>
 </defs>
 <g id="Слой_x0020_1">
  <metadata id="CorelCorpID_0Corel-Layer"/>
  <g id="_1965462380256">
   <g>
    <path class="fil0" d="M93.04 948.61c10.67,-12.76 29.67,-14.47 42.45,-3.78 12.76,10.67 14.45,29.69 3.76,42.45 -46.77,55.92 -97.33,136.89 -72.53,205.12 35.52,97.72 220.01,140.95 478.13,115.16 -37.47,-12.42 -70.62,-33.78 -83.86,-70.17 -14.52,-39.94 -7.73,-107.55 106.92,-202.9 80.53,-66.97 199.14,-134.43 333.94,-189.9 15.39,-6.32 33.01,1 39.34,16.4 6.33,15.38 -1,33.01 -16.4,39.32 -19.08,7.87 -37.44,15.79 -55.15,23.75l87.28 290.8c4.77,15.95 -4.27,32.75 -20.22,37.53 -1.27,0.39 -2.56,0.68 -3.86,0.9 -14.71,2.39 -29.26,-6.44 -33.66,-21.1l-84.65 -282.06c-87.11,43.17 -154.68,86.84 -203.36,126.74l179.61 924.33c3.18,16.34 -7.5,32.15 -23.84,35.34 -0.31,0.05 -0.61,0.12 -0.93,0.17 -15.99,2.6 -31.27,-7.98 -34.39,-24.01l-126.57 -651.42c-323.85,42.51 -545.6,-12.44 -594.96,-148.25 -27.4,-75.38 1.28,-166.79 82.95,-264.4zm424.6 268.2c6.4,17.62 30.17,31.34 66.98,39.31l-25.4 -130.68c-35.36,38.82 -48.95,71.09 -41.58,91.37z"/>
    <path class="fil0" d="M1779.56 1360.89c14.55,-8.04 32.9,-2.77 40.94,11.78l112.5 203.29c8.05,14.57 2.78,32.9 -11.77,40.97 -3.13,1.73 -6.43,2.84 -9.77,3.39 -12.19,1.98 -24.87,-3.74 -31.19,-15.16l-112.48 -203.29c-8.07,-14.57 -2.8,-32.9 11.77,-40.97z"/>
    <path class="fil0" d="M1043.06 792.84c256.08,-82.61 552.93,-113.16 599.53,15.02 13.22,36.4 1.53,74.07 -19.22,107.65 214.43,-145.98 328.09,-297.59 292.57,-395.29 -22,-60.52 -101.58,-101.45 -225.26,-116.37 -7.84,48.32 -45.74,88.52 -96.65,96.79 -63.63,10.33 -123.82,-33.02 -134.16,-96.67 -0.05,-0.31 -0.08,-0.62 -0.11,-0.94 -178.25,15.38 -379.26,62.38 -583.53,136.62 -255.41,92.85 -480.81,215.86 -634.67,346.39 -4.35,3.67 -9.41,5.91 -14.64,6.76 -10.08,1.63 -20.74,-1.89 -27.83,-10.26 -10.78,-12.69 -9.22,-31.71 3.47,-42.48 65.34,-55.41 142.96,-109.44 229.86,-160.49 35.08,-181.55 157.55,-330.6 329.31,-399.88 183.51,-74.01 391.33,-42.35 544.64,82.27 55.03,-9.21 108.6,-15.88 160.31,-19.95 14.75,-36.87 47.9,-65.36 89.86,-72.17 55.26,-8.98 107.87,22.55 127.54,72.66 198.18,20.55 266.41,96.37 288.49,157.11 49.38,135.81 -85.33,320.33 -360.86,495.7l137.03 247.67c8.04,14.55 2.77,32.9 -11.78,40.94 -3.13,1.74 -6.43,2.85 -9.77,3.39 -12.19,1.98 -24.86,-3.72 -31.19,-15.16l-271.77 -491.15c-62.9,0.72 -142.71,10.71 -237.16,33.59l222.14 517.12c6.58,15.3 -0.49,33.03 -15.79,39.59 -2.32,0.99 -4.71,1.7 -7.08,2.08 -13.33,2.17 -26.94,-4.89 -32.5,-17.88l-225.7 -525.45c-21.54,6.09 -43.74,12.76 -66.59,20.14 -15.81,5.09 -32.83,-3.59 -37.93,-19.43 -5.12,-15.83 3.59,-32.83 19.43,-37.95zm-258.78 -457.24c-135.93,54.83 -237.18,165.88 -279.75,303.48 107.03,-57.56 225.62,-110.45 351.12,-156.06 125.52,-45.64 250.05,-81.21 369.24,-105.83 -130.53,-84.02 -294.27,-100.62 -440.61,-41.59zm781.93 -6.27c-30.82,5.01 -51.85,34.16 -46.84,64.98 5.01,30.84 34.16,51.84 65,46.84 30.82,-5 51.82,-34.15 46.82,-64.99 -5,-30.82 -34.15,-51.83 -64.98,-46.82zm-6.35 572.28c23.09,-29.77 32.49,-55.53 26.09,-73.14 -7.46,-20.48 -38.63,-36.53 -90.68,-43.58l64.59 116.72z"/>
    <path class="fil0" d="M1818.87 595.9c16.98,46.75 -11.06,100 -62.56,118.71 -6.57,2.38 -13.18,4.09 -19.79,5.17 -45.26,7.35 -89.57,-15.2 -104.4,-56 -17,-46.74 11.07,-100.01 62.56,-118.74 51.49,-18.71 107.19,4.11 124.19,50.86zm-130.11 47.27c5.55,15.26 27.05,22.05 46.97,14.8 19.9,-7.24 32.04,-26.23 26.48,-41.48 -4.72,-13.02 -21.08,-19.86 -38.14,-17.09 -2.94,0.48 -5.89,1.23 -8.81,2.3 -19.9,7.23 -32.03,26.23 -26.51,41.47z"/>
    <path class="fil0" d="M1388.64 488.97c24.44,9.37 42.6,27.43 51.11,50.83 8.51,23.41 6.18,48.9 -6.53,71.79 -11.92,21.46 -31.82,38.14 -56.02,46.95 -6.57,2.38 -13.24,4.12 -19.97,5.21 -18.08,2.94 -36.4,1.19 -53.13,-5.21 -24.44,-9.36 -42.57,-27.44 -51.09,-50.86 -17,-46.75 11.07,-100.01 62.56,-118.72 24.18,-8.8 50.15,-8.8 73.08,0.01zm-79.01 98.12c3.32,9.11 11.46,13.41 16.03,15.17 9.25,3.55 20.53,3.41 30.94,-0.38 10.4,-3.76 19.13,-10.91 23.94,-19.58 2.39,-4.27 5.87,-12.81 2.55,-21.91 -3.3,-9.09 -11.47,-13.41 -16.03,-15.15 -6.65,-2.57 -14.35,-3.2 -22.03,-1.95 -2.97,0.48 -5.96,1.26 -8.89,2.31 -19.92,7.24 -32.03,26.23 -26.51,41.49z"/>
    <path class="fil0" d="M835.48 718.34c-17,-46.74 11.07,-100 62.54,-118.71 51.51,-18.74 107.2,4.09 124.21,50.83 16.98,46.75 -11.07,100 -62.56,118.72 -6.56,2.4 -13.17,4.11 -19.78,5.18 -45.26,7.35 -89.57,-15.22 -104.4,-56.02zm56.64 -20.58c5.55,15.26 27.05,22.02 46.95,14.79 19.92,-7.24 32.06,-26.24 26.51,-41.5 -4.72,-13.01 -21.08,-19.86 -38.16,-17.08 -2.91,0.47 -5.89,1.23 -8.79,2.3 -19.9,7.24 -32.06,26.24 -26.51,41.49z"/>
    <path class="fil0" d="M252.29 1069.36c51.51,-18.73 107.21,4.11 124.21,50.83 16.99,46.77 -11.08,100.03 -62.56,118.73 -6.57,2.38 -13.18,4.1 -19.79,5.17 -45.26,7.35 -89.57,-15.22 -104.4,-56 -17.01,-46.75 11.07,-100.01 62.53,-118.73zm-5.9 98.13c5.55,15.25 27.05,22.04 46.97,14.8 19.9,-7.24 32.04,-26.23 26.49,-41.49 -5.53,-15.26 -27.03,-22.03 -46.95,-14.79 -19.92,7.22 -32.03,26.23 -26.51,41.47z"/>
    <path class="fil0" d="M506.9 782.92c51.51,-18.73 107.2,4.09 124.21,50.83 16.98,46.75 -11.09,100.01 -62.58,118.74 -6.55,2.38 -13.24,4.12 -19.95,5.21 -18.08,2.94 -36.41,1.19 -53.13,-5.21 -24.44,-9.37 -42.58,-27.44 -51.09,-50.84 -8.53,-23.42 -6.21,-48.92 6.51,-71.79 11.94,-21.49 31.84,-38.16 56.02,-46.95zm-5.9 98.13c3.33,9.11 11.46,13.4 16.03,15.16 9.25,3.55 20.54,3.41 30.91,-0.38 19.93,-7.22 32.06,-26.24 26.51,-41.47 -5.55,-15.26 -27.07,-22.03 -46.95,-14.81 -10.41,3.79 -19.14,10.91 -23.94,19.57 -2.38,4.29 -5.87,12.81 -2.57,21.92z"/>
    <path class="fil0" d="M245.91 719.59c-63.65,10.34 -123.82,-33.02 -134.15,-96.67 -10.33,-63.62 33.03,-123.8 96.67,-134.13 63.62,-10.33 123.8,33.03 134.13,96.65 10.33,63.64 -33.02,123.81 -96.65,134.15zm-27.82 -171.31c-30.82,5 -51.85,34.16 -46.84,64.98 5.01,30.84 34.18,51.84 65,46.84 30.82,-5 51.82,-34.15 46.81,-64.99 -5,-30.82 -34.15,-51.83 -64.97,-46.82z"/>
   </g>
   <g>
    <path class="fil0" d="M535.95 1665.29c5.42,-0.88 10.5,-3.83 13.96,-8.63 6.93,-9.62 4.76,-22.99 -4.86,-29.93l-24.6 -17.73c-9.6,-6.93 -23.02,-4.75 -29.93,4.86 -6.93,9.62 -4.76,23 4.86,29.93l24.6 17.72c4.8,3.46 10.55,4.65 15.97,3.77z"/>
    <path class="fil0" d="M401.55 1774.01c5.42,-0.88 10.5,-3.83 13.96,-8.63 6.93,-9.62 4.76,-22.99 -4.86,-29.93l-24.6 -17.73c-9.6,-6.94 -23.02,-4.76 -29.93,4.86 -6.93,9.62 -4.76,23 4.86,29.93l24.6 17.73c4.8,3.46 10.55,4.65 15.97,3.77z"/>
    <path class="fil0" d="M507.37 1756.82c5.42,-0.88 10.5,-3.83 13.96,-8.63 6.93,-9.62 4.76,-22.99 -4.86,-29.93l-24.6 -17.73c-9.6,-6.93 -23.02,-4.76 -29.93,4.86 -6.93,9.62 -4.76,22.99 4.86,29.93l24.6 17.73c4.8,3.46 10.55,4.65 15.97,3.77z"/>
    <path class="fil0" d="M434.11 1573.21c5.42,-0.88 10.5,-3.83 13.96,-8.63 6.93,-9.62 4.76,-22.99 -4.86,-29.93l-24.6 -17.73c-9.6,-6.93 -23.02,-4.76 -29.93,4.86 -6.93,9.62 -4.76,23 4.86,29.93l24.6 17.73c4.8,3.46 10.55,4.65 15.97,3.77z"/>
    <path class="fil0" d="M299.7 1681.93c5.42,-0.88 10.5,-3.83 13.96,-8.63 6.93,-9.62 4.76,-23 -4.86,-29.93l-24.6 -17.72c-9.6,-6.93 -23.02,-4.76 -29.93,4.86 -6.93,9.62 -4.76,23 4.86,29.93l24.6 17.73c4.8,3.46 10.55,4.65 15.97,3.77z"/>
    <path class="fil0" d="M405.53 1664.75c5.42,-0.88 10.5,-3.84 13.96,-8.63 6.93,-9.62 4.76,-23 -4.86,-29.93l-24.6 -17.72c-9.6,-6.93 -23.02,-4.76 -29.93,4.86 -6.93,9.62 -4.76,23 4.86,29.93l24.6 17.73c4.8,3.46 10.55,4.65 15.97,3.77z"/>
   </g>
   <g>
    <path class="fil0" d="M1379.94 121.82l-28.1 39.02 -39.02 -28.12 28.12 -39.02 39 28.12zm-18.38 98.87l78.25 -108.59 -108.59 -78.25 -78.27 108.6 108.62 78.25z"/>
    <path class="fil0" d="M1339.51 84.94c11.68,-1.9 19.63,-12.92 17.73,-24.6l-6.87 -42.33c-1.9,-11.68 -12.92,-19.62 -24.6,-17.73 -11.68,1.9 -19.62,12.92 -17.72,24.6l6.87 42.33c1.9,11.68 12.92,19.63 24.6,17.73z"/>
    <path class="fil0" d="M1244 165.62l42.33 -6.87c11.68,-1.9 19.62,-12.92 17.73,-24.6 -1.9,-11.68 -12.92,-19.62 -24.6,-17.73l-42.33 6.87c-11.69,1.9 -19.63,12.92 -17.73,24.6 1.9,11.68 12.92,19.63 24.6,17.73z"/>
    <path class="fil0" d="M1367.01 254.26c11.68,-1.9 19.63,-12.92 17.73,-24.6l-6.87 -42.33c-1.9,-11.68 -12.92,-19.63 -24.6,-17.73 -11.68,1.9 -19.62,12.92 -17.72,24.6l6.87 42.33c1.9,11.68 12.92,19.63 24.6,17.73z"/>
    <path class="fil0" d="M1413.32 138.12l42.33 -6.87c11.68,-1.9 19.62,-12.92 17.73,-24.6 -1.9,-11.68 -12.92,-19.63 -24.6,-17.73l-42.33 6.87c-11.68,1.9 -19.62,12.92 -17.73,24.6 1.9,11.68 12.92,19.63 24.6,17.73z"/>
   </g>
  </g>
 </g>
</svg>
