<svg width="49" height="48" viewBox="0 0 49 48" fill="none" xmlns="http://www.w3.org/2000/svg">
<path fill-rule="evenodd" clip-rule="evenodd" d="M42.6655 27.5898C42.5831 27.6956 42.4752 27.7787 42.3519 27.8312C42.2285 27.8837 42.0938 27.9038 41.9605 27.8898C41.8283 27.8934 41.697 27.8684 41.5753 27.8166C41.4537 27.7649 41.3446 27.6875 41.2555 27.5898C41.1601 27.5005 41.0841 27.3926 41.0321 27.2727C40.9802 27.1528 40.9534 27.0235 40.9534 26.8928C40.9534 26.7622 40.9802 26.6329 41.0321 26.513C41.0841 26.3931 41.1601 26.2852 41.2555 26.1958C44.4523 22.9195 46.2416 18.5234 46.2416 13.9458C46.2416 9.36833 44.4523 4.97217 41.2555 1.69584C41.1601 1.60652 41.0841 1.49857 41.0321 1.37868C40.9802 1.25879 40.9534 1.12951 40.9534 0.998845C40.9534 0.868176 40.9802 0.738897 41.0321 0.619008C41.0841 0.49912 41.1601 0.391172 41.2555 0.301845C41.347 0.207154 41.4566 0.13185 41.5778 0.0804192C41.699 0.0289881 41.8293 0.00248288 41.961 0.00248288C42.0927 0.00248288 42.223 0.0289881 42.3442 0.0804192C42.4654 0.13185 42.575 0.207154 42.6665 0.301845C46.2485 3.93981 48.2562 8.84057 48.256 13.946C48.2558 19.0515 46.2478 23.9521 42.6655 27.5898ZM38.4345 22.8088C38.243 22.9901 37.9929 23.0966 37.7295 23.1088C37.5973 23.1123 37.466 23.0873 37.3444 23.0355C37.2227 22.9838 37.1136 22.9065 37.0245 22.8088C36.9292 22.7196 36.8532 22.6117 36.8012 22.4919C36.7492 22.3721 36.7224 22.2429 36.7224 22.1123C36.7224 21.9818 36.7492 21.8526 36.8012 21.7328C36.8532 21.6129 36.9292 21.5051 37.0245 21.4158C38.0537 20.4005 38.8709 19.1909 39.4286 17.8571C39.9864 16.5233 40.2736 15.092 40.2736 13.6463C40.2736 12.2006 39.9864 10.7694 39.4286 9.43559C38.8709 8.10182 38.0537 6.89215 37.0245 5.87684C36.9291 5.78752 36.8531 5.67957 36.8011 5.55968C36.7492 5.43979 36.7224 5.31051 36.7224 5.17984C36.7224 5.04918 36.7492 4.9199 36.8011 4.80001C36.8531 4.68012 36.9291 4.57217 37.0245 4.48284C37.116 4.38831 37.2255 4.31313 37.3466 4.2618C37.4677 4.21046 37.5979 4.184 37.7295 4.184C37.861 4.184 37.9912 4.21046 38.1124 4.2618C38.2335 4.31313 38.343 4.38831 38.4345 4.48284C39.6544 5.67675 40.6237 7.10224 41.2854 8.6757C41.9471 10.2492 42.2879 11.9389 42.2879 13.6458C42.2879 15.3528 41.9471 17.0425 41.2854 18.616C40.6237 20.1895 39.6544 21.6149 38.4345 22.8088ZM33.4975 18.9238C33.3653 18.9278 33.2338 18.903 33.1121 18.8512C32.9904 18.7994 32.8813 18.7218 32.7925 18.6238C32.6971 18.5345 32.6211 18.4266 32.5691 18.3067C32.5172 18.1868 32.4903 18.0575 32.4903 17.9268C32.4903 17.7962 32.5172 17.6669 32.5691 17.547C32.6211 17.4271 32.6971 17.3192 32.7925 17.2298C33.7132 16.2831 34.2283 15.0145 34.2283 13.6938C34.2283 12.3732 33.7132 11.1046 32.7925 10.1578C32.6971 10.0685 32.6211 9.96057 32.5691 9.84068C32.5172 9.72079 32.4903 9.59151 32.4903 9.46084C32.4903 9.33018 32.5172 9.2009 32.5691 9.08101C32.6211 8.96112 32.6971 8.85317 32.7925 8.76384C32.884 8.66931 32.9935 8.59414 33.1146 8.5428C33.2357 8.49146 33.366 8.465 33.4975 8.465C33.629 8.465 33.7592 8.49146 33.8804 8.5428C34.0015 8.59414 34.111 8.66931 34.2025 8.76384C35.5088 10.072 36.2425 11.8451 36.2425 13.6938C36.2425 15.5426 35.5088 17.3157 34.2025 18.6238C34.0116 18.8059 33.7611 18.9125 33.4975 18.9238ZM25.6435 18.6768L37.9305 46.4148C37.9831 46.533 38.012 46.6604 38.0153 46.7897C38.0187 46.9191 37.9965 47.0478 37.9501 47.1685C37.9036 47.2893 37.8338 47.3997 37.7447 47.4934C37.6555 47.5872 37.5488 47.6624 37.4305 47.7148C37.2715 47.7789 37.1019 47.8128 36.9305 47.8148C36.7339 47.8311 36.5376 47.7808 36.3731 47.6719C36.2086 47.5631 36.0854 47.4021 36.0235 47.2148L34.3415 43.4348C34.2622 43.4015 34.1825 43.3655 34.1025 43.3268L24.1255 36.0948L14.0535 43.3278H14.0475L12.3405 47.2078C12.2313 47.4463 12.0329 47.6324 11.7878 47.7259C11.5428 47.8194 11.2708 47.8129 11.0305 47.7078C10.9122 47.6554 10.8055 47.5802 10.7163 47.4864C10.6272 47.3927 10.5574 47.2823 10.5109 47.1615C10.4645 47.0408 10.4423 46.9121 10.4457 46.7827C10.449 46.6534 10.4778 46.526 10.5305 46.4078L22.7905 18.7298C21.6224 18.4083 20.6093 17.6768 19.9367 16.6691C19.2641 15.6615 18.977 14.4453 19.1281 13.2432C19.2792 12.0412 19.8582 10.9338 20.7593 10.1239C21.6603 9.31404 22.8229 8.85589 24.0342 8.8334C25.2455 8.8109 26.4243 9.22556 27.3548 10.0014C28.2853 10.7773 28.9051 11.8624 29.1007 13.058C29.2963 14.2536 29.0545 15.4797 28.4198 16.5116C27.7851 17.5435 26.7998 18.3122 25.6445 18.6768H25.6435ZM32.7715 39.9038L29.0105 31.4268L25.6375 34.7608L32.7715 39.9038ZM15.6235 39.7548L22.6175 34.7648L19.2715 31.4548L15.6235 39.7548ZM20.1235 29.5148L24.1235 33.4708L28.1475 29.4908L24.1235 20.4208L20.1235 29.5148ZM24.1235 10.9598C23.5337 10.9664 22.9591 11.1472 22.4719 11.4796C21.9847 11.812 21.6067 12.2811 21.3856 12.8279C21.1644 13.3747 21.11 13.9747 21.2291 14.5523C21.3482 15.1299 21.6355 15.6594 22.0549 16.0741C22.4743 16.4888 23.0071 16.7701 23.586 16.8827C24.165 16.9953 24.7643 16.9341 25.3085 16.7067C25.8528 16.4794 26.3176 16.0962 26.6444 15.6052C26.9713 15.1143 27.1457 14.5376 27.1455 13.9478C27.1511 13.5512 27.0767 13.1575 26.9268 12.7903C26.7768 12.423 26.5544 12.0898 26.2728 11.8104C25.9912 11.5311 25.6562 11.3113 25.2878 11.1643C24.9193 11.0173 24.5251 10.9461 24.1285 10.9548L24.1235 10.9598ZM15.4595 18.6288C15.3773 18.7348 15.2694 18.8181 15.146 18.8706C15.0226 18.9231 14.8878 18.9431 14.7545 18.9288C14.6223 18.9328 14.4908 18.908 14.3691 18.8562C14.2474 18.8044 14.1383 18.7268 14.0495 18.6288C12.7432 17.3207 12.0095 15.5476 12.0095 13.6988C12.0095 11.8501 12.7432 10.077 14.0495 8.76884C14.141 8.67415 14.2506 8.59885 14.3718 8.54742C14.493 8.49599 14.6233 8.46948 14.755 8.46948C14.8867 8.46948 15.017 8.49599 15.1382 8.54742C15.2594 8.59885 15.369 8.67415 15.4605 8.76884C15.5559 8.85817 15.6319 8.96612 15.6839 9.08601C15.7358 9.2059 15.7626 9.33518 15.7626 9.46584C15.7626 9.59651 15.7358 9.72579 15.6839 9.84568C15.6319 9.96557 15.5559 10.0735 15.4605 10.1628C14.5396 11.1095 14.0243 12.3781 14.0243 13.6988C14.0243 15.0196 14.5396 16.2882 15.4605 17.2348C15.5556 17.3239 15.6316 17.4314 15.6836 17.5509C15.7356 17.6703 15.7627 17.7992 15.7631 17.9295C15.7634 18.0598 15.7371 18.1888 15.6858 18.3085C15.6344 18.4283 15.5591 18.5363 15.4645 18.6258L15.4595 18.6288ZM11.2285 22.8118C11.1371 22.9065 11.0276 22.9818 10.9064 23.0332C10.7853 23.0846 10.6551 23.1111 10.5235 23.1111C10.3919 23.1111 10.2617 23.0846 10.1405 23.0332C10.0194 22.9818 9.9099 22.9065 9.8185 22.8118C8.58761 21.6276 7.6128 20.2034 6.95437 18.6273C6.29594 17.0512 5.96788 15.3568 5.9905 13.6488C6.01021 10.2096 7.38576 6.91699 9.8185 4.48584C9.90997 4.39131 10.0195 4.31613 10.1406 4.2648C10.2617 4.21346 10.392 4.187 10.5235 4.187C10.655 4.187 10.7852 4.21346 10.9064 4.2648C11.0275 4.31613 11.137 4.39131 11.2285 4.48584C11.3239 4.57517 11.3999 4.68312 11.4519 4.80301C11.5038 4.9229 11.5306 5.05218 11.5306 5.18284C11.5306 5.31351 11.5038 5.44279 11.4519 5.56268C11.3999 5.68257 11.3239 5.79052 11.2285 5.87984C10.2066 6.89923 9.39576 8.11021 8.84254 9.44343C8.28933 10.7766 8.00457 12.2059 8.00457 13.6493C8.00457 15.0928 8.28933 16.522 8.84254 17.8553C9.39576 19.1885 10.2066 20.3995 11.2285 21.4188C11.3236 21.5078 11.3995 21.6152 11.4516 21.7346C11.5036 21.854 11.5306 21.9828 11.531 22.113C11.5314 22.2432 11.5051 22.3721 11.4537 22.4918C11.4024 22.6115 11.3271 22.7194 11.2325 22.8088L11.2285 22.8118ZM7.0015 26.1958C7.09687 26.2852 7.17289 26.3931 7.22486 26.513C7.27683 26.6329 7.30365 26.7622 7.30365 26.8928C7.30365 27.0235 7.27683 27.1528 7.22486 27.2727C7.17289 27.3926 7.09687 27.5005 7.0015 27.5898C6.81004 27.7711 6.55986 27.8776 6.2965 27.8898C6.16433 27.8934 6.03294 27.8685 5.91128 27.8167C5.78962 27.765 5.68055 27.6876 5.5915 27.5898C2.00841 23.9519 0 19.0506 0 13.9443C0 8.83814 2.00841 3.93681 5.5915 0.298845C5.68297 0.204309 5.79252 0.129135 5.91364 0.0777959C6.03475 0.0264565 6.16495 0 6.2965 0C6.42804 0 6.55825 0.0264565 6.67936 0.0777959C6.80047 0.129135 6.91002 0.204309 7.0015 0.298845C7.09687 0.388172 7.17289 0.49612 7.22486 0.616008C7.27683 0.735897 7.30365 0.865176 7.30365 0.995845C7.30365 1.12651 7.27683 1.25579 7.22486 1.37568C7.17289 1.49557 7.09687 1.60352 7.0015 1.69284C3.80383 4.9693 2.01388 9.36611 2.01388 13.9443C2.01388 18.5226 3.80383 22.9194 7.0015 26.1958Z" fill="white"/>
</svg>
